<svg id="图层_1" data-name="图层 1" xmlns="http://www.w3.org/2000/svg" xmlns:xlink="http://www.w3.org/1999/xlink" viewBox="0 0 595.28 318"><defs><style>.cls-1,.cls-10,.cls-17,.cls-5,.cls-6,.cls-8{fill:none;}.cls-2{clip-path:url(#clip-path);}.cls-3{clip-path:url(#clip-path-2);}.cls-4{fill:#fff;}.cls-5{stroke:#afabab;stroke-width:2.28px;}.cls-10,.cls-17,.cls-5,.cls-6,.cls-8{stroke-miterlimit:10;}.cls-17,.cls-6{stroke:#7f7f7f;}.cls-10,.cls-6,.cls-8{stroke-width:4.56px;}.cls-7{fill:#8faadc;}.cls-8{stroke:#2f5597;}.cls-9{fill:#f4b183;}.cls-10{stroke:#c55a11;}.cls-11{fill:#bfbfbf;}.cls-12{clip-path:url(#clip-path-3);}.cls-13{clip-path:url(#clip-path-4);}.cls-14{fill:#7f7f7f;}.cls-15{clip-path:url(#clip-path-5);}.cls-16{clip-path:url(#clip-path-6);}.cls-17{stroke-width:3.96px;}.cls-18{clip-path:url(#clip-path-7);}.cls-19{clip-path:url(#clip-path-8);}.cls-20{clip-path:url(#clip-path-9);}.cls-21{clip-path:url(#clip-path-10);}.cls-22{clip-path:url(#clip-path-11);}.cls-23{clip-path:url(#clip-path-12);}.cls-24{fill:#ff5050;}.cls-25,.cls-27{font-size:18px;font-family:TimesNewRomanPSMT, Times New Roman;}.cls-26{font-size:24px;font-family:TimesNewRomanPS-ItalicMT, Times New Roman;}.cls-26,.cls-28{font-style:italic;}.cls-27{letter-spacing:-0.06em;}.cls-28{font-family:TimesNewRomanPS-BoldItalicMT, Times New Roman;font-weight:700;}</style><clipPath id="clip-path"><rect class="cls-1" x="12.84" y="12.1" width="191.19" height="147.4"/></clipPath><clipPath id="clip-path-2"><rect class="cls-1" x="-369.02" y="-120.34" width="1025.4" height="576.79"/></clipPath><clipPath id="clip-path-3"><rect class="cls-1" x="17.41" y="176.26" width="188.41" height="143.15"/></clipPath><clipPath id="clip-path-4"><rect class="cls-1" x="-407.83" y="-16.36" width="1010.47" height="568.39"/></clipPath><clipPath id="clip-path-5"><rect class="cls-1" x="211.4" y="176.94" width="183.7" height="140.94"/></clipPath><clipPath id="clip-path-6"><rect class="cls-1" x="-203.5" y="-7.29" width="1013.51" height="570.1"/></clipPath><clipPath id="clip-path-7"><rect class="cls-1" x="400.19" y="177.57" width="184.25" height="141.35"/></clipPath><clipPath id="clip-path-8"><rect class="cls-1" x="-13.68" y="37.1" width="1012.68" height="569.63"/></clipPath><clipPath id="clip-path-9"><rect class="cls-1" x="207.54" y="16.82" width="186.7" height="142.85"/></clipPath><clipPath id="clip-path-10"><rect class="cls-1" x="-208.28" y="-117.55" width="1018.34" height="572.82"/></clipPath><clipPath id="clip-path-11"><rect class="cls-1" x="393.33" y="15" width="190" height="145.42"/></clipPath><clipPath id="clip-path-12"><rect class="cls-1" x="40.93" y="-183.49" width="1018.99" height="573.18"/></clipPath></defs><title>subgraph</title><g class="cls-2"><g class="cls-3"><rect class="cls-4" x="-369.02" y="-120.34" width="1025.4" height="576.79"/></g><rect class="cls-5" x="18.65" y="19.69" width="179.83" height="135.22"/><line class="cls-6" x1="73.44" y1="59.62" x2="112.28" y2="84.48"/><line class="cls-6" x1="112.28" y1="84.48" x2="101.9" y2="33.08"/><line class="cls-6" x1="73.44" y1="59.62" x2="101.9" y2="33.08"/><line class="cls-6" x1="112.28" y1="84.48" x2="129.46" y2="49.23"/><line class="cls-6" x1="112.28" y1="84.48" x2="158.68" y2="89.74"/><line class="cls-6" x1="112.28" y1="84.48" x2="148.3" y2="120.63"/><line class="cls-6" x1="148.3" y1="120.63" x2="158.68" y2="89.74"/><line class="cls-6" x1="148.3" y1="120.63" x2="107.03" y2="115.37"/><line class="cls-6" x1="91.52" y1="141.39" x2="148.3" y2="120.63"/><line class="cls-6" x1="91.52" y1="141.39" x2="107.03" y2="115.37"/><line class="cls-6" x1="73.44" y1="59.62" x2="76.14" y2="89.74"/><line class="cls-6" x1="112.28" y1="84.48" x2="76.14" y2="89.74"/><line class="cls-6" x1="107.03" y1="115.37" x2="76.14" y2="89.74"/><line class="cls-6" x1="58.19" y1="115.37" x2="76.14" y2="89.74"/><line class="cls-6" x1="129.46" y1="49.23" x2="163.04" y2="43.46"/><line class="cls-6" x1="158.68" y1="89.74" x2="163.04" y2="43.46"/><line class="cls-6" x1="148.3" y1="120.63" x2="184.96" y2="115.37"/><line class="cls-6" x1="158.68" y1="89.74" x2="184.96" y2="115.37"/><line class="cls-6" x1="101.9" y1="33.08" x2="52.94" y2="38.34"/><line class="cls-6" x1="73.44" y1="59.62" x2="52.94" y2="38.34"/><line class="cls-6" x1="32.17" y1="74.1" x2="52.94" y2="38.34"/><circle class="cls-7" cx="73.38" cy="59.68" r="5.19" transform="translate(-20.71 69.37) rotate(-45)"/><circle class="cls-8" cx="73.38" cy="59.68" r="5.19" transform="translate(-20.71 69.37) rotate(-45)"/><circle class="cls-9" cx="129.39" cy="49.3" r="5.19" transform="translate(3.04 105.93) rotate(-45)"/><circle class="cls-10" cx="129.39" cy="49.3" r="5.19" transform="translate(3.04 105.93) rotate(-45)"/><circle class="cls-9" cx="112.22" cy="84.55" r="5.19" transform="translate(4.15 174.34) rotate(-76.72)"/><circle class="cls-10" cx="112.22" cy="84.55" r="5.19" transform="translate(4.15 174.34) rotate(-76.72)"/><circle class="cls-9" cx="148.36" cy="120.56" r="5.19" transform="translate(-3.06 237.26) rotate(-76.72)"/><circle class="cls-10" cx="148.36" cy="120.56" r="5.19" transform="translate(-3.06 237.26) rotate(-76.72)"/><circle class="cls-9" cx="58.13" cy="115.44" r="5.19" transform="translate(-67.58 145.49) rotate(-76.72)"/><circle class="cls-10" cx="58.13" cy="115.44" r="5.19" transform="translate(-67.58 145.49) rotate(-76.72)"/><circle class="cls-9" cx="91.45" cy="141.33" r="5.19" transform="translate(-67.1 197.86) rotate(-76.72)"/><circle class="cls-10" cx="91.45" cy="141.33" r="5.19" transform="translate(-67.1 197.86) rotate(-76.72)"/><circle class="cls-11" cx="101.83" cy="33.15" r="5.19" transform="translate(46.18 124.64) rotate(-76.72)"/><circle class="cls-6" cx="101.83" cy="33.15" r="5.19" transform="translate(46.18 124.64) rotate(-76.72)"/><circle class="cls-11" cx="158.74" cy="89.67" r="5.19" transform="translate(-16.91 138.51) rotate(-45)"/><circle class="cls-6" cx="158.74" cy="89.67" r="5.19" transform="translate(-16.91 138.51) rotate(-45)"/><circle class="cls-11" cx="107.09" cy="115.44" r="5.19" transform="translate(-29.86 193.14) rotate(-76.72)"/><circle class="cls-6" cx="107.09" cy="115.44" r="5.19" transform="translate(-29.86 193.14) rotate(-76.72)"/><circle class="cls-11" cx="76.2" cy="89.67" r="5.19" transform="translate(-41.09 80.15) rotate(-45)"/><circle class="cls-6" cx="76.2" cy="89.67" r="5.19" transform="translate(-41.09 80.15) rotate(-45)"/><circle class="cls-11" cx="32.24" cy="74.16" r="5.19" transform="translate(-47.35 88.5) rotate(-76.72)"/><circle class="cls-6" cx="32.24" cy="74.16" r="5.19" transform="translate(-47.35 88.5) rotate(-76.72)"/><circle class="cls-7" cx="163.1" cy="43.53" r="5.19" transform="translate(16.99 128.08) rotate(-45)"/><circle class="cls-8" cx="163.1" cy="43.53" r="5.19" transform="translate(16.99 128.08) rotate(-45)"/><circle class="cls-7" cx="184.89" cy="115.44" r="5.19" transform="translate(7.49 242.08) rotate(-67.5)"/><circle class="cls-8" cx="184.89" cy="115.44" r="5.19" transform="translate(7.49 242.08) rotate(-67.5)"/><circle class="cls-7" cx="53" cy="38.27" r="5.19"/><circle class="cls-8" cx="53" cy="38.27" r="5.19"/><rect class="cls-1" x="-369.02" y="-120.34" width="1025.4" height="576.79"/></g><g class="cls-12"><g class="cls-13"><rect class="cls-4" x="-407.83" y="-16.36" width="1010.47" height="568.39"/></g><rect class="cls-5" x="21.68" y="181.38" width="177.21" height="133.13"/><path class="cls-14" d="M106.73,233.28l7.16,12L100,243.82ZM76.74,219l29.49,18.88L104,241.43,74.49,222.54Z"/><path class="cls-14" d="M117.54,231.8l-3.65,13.49-8.6-11Zm-7.76,3.69-8.17-40.44,4.09-.82,8.16,40.43Z"/><path class="cls-14" d="M119.72,219.06l11.09-8.5.15,14ZM125,236.79l-11.09,8.5-.15-14Zm-8.4-1.78,7.79-16,3.75,1.83-7.79,16Z"/><path class="cls-14" d="M125.63,252.88l-11.74-7.59L127,240.45Zm-1.16-8.52,35.37,3.91-.46,4.15L124,248.51Z"/><path class="cls-14" d="M145,267.52l4.42,13.26-13.26-4.42Zm-26.65-9-4.42-13.26,13.26,4.42Zm4.42-7.37,20.75,20.76-2.94,2.95-20.76-20.76Z"/><path class="cls-14" d="M159.29,270.92l-9.91,9.86-1.95-13.84Zm-8.56-.68,6.9-20.56,4,1.33-6.92,20.56Z"/><path class="cls-14" d="M137.74,273l11.64,7.74-13.18,4.67Zm1,8.52-30.33-3.77.51-4.13,30.33,3.76Z"/><path class="cls-14" d="M135.48,279.2l13.9,1.58L139.78,291Zm-28.16,23.62-13.9-1.58,9.6-10.16Zm-4.82-7.11,36.37-13.31,1.43,3.92-36.37,13.3Z"/><path class="cls-14" d="M105.21,293.73l-11.79,7.51,1.07-13.93ZM97,291.23l9.93-16.57,3.58,2.14-9.93,16.57Z"/><path class="cls-14" d="M100.62,240.86l13.27,4.43-11.5,8Zm3.24,8-25.17,3.58-.59-4.13,25.18-3.59Z"/><path class="cls-14" d="M72.89,269.09l-12.31,6.64,2.07-13.83Zm-8-3.09,11.83-16.86,3.41,2.4L68.28,268.39Z"/><path class="cls-14" d="M144.19,214.6l-13.38-4,11.26-8.29Zm-3.46-7.87,22.82-3.91.7,4.1-22.82,3.93Z"/><path class="cls-14" d="M162.63,285.25l-13.25-4.47,11.51-7.92Zm-3.22-8,25.81-3.61.57,4.12L160,281.4Z"/><circle class="cls-7" cx="75.61" cy="220.66" r="5.12" transform="translate(-156.52 243.55) rotate(-76.72)"/><circle class="cls-8" cx="75.61" cy="220.66" r="5.12" transform="translate(-156.52 243.55) rotate(-76.72)"/><circle class="cls-9" cx="130.81" cy="210.43" r="5.12" transform="translate(-70.57 66.08) rotate(-22.5)"/><circle class="cls-10" cx="130.81" cy="210.43" r="5.12" transform="translate(-70.57 66.08) rotate(-22.5)"/><circle class="cls-9" cx="113.76" cy="245.16" r="5.12" transform="translate(-140.04 152.25) rotate(-45)"/><circle class="cls-10" cx="113.76" cy="245.16" r="5.12" transform="translate(-140.04 152.25) rotate(-45)"/><circle class="cls-9" cx="149.38" cy="280.78" r="5.12" transform="translate(-96.08 78.54) rotate(-22.5)"/><circle class="cls-10" cx="149.38" cy="280.78" r="5.12" transform="translate(-96.08 78.54) rotate(-22.5)"/><circle class="cls-9" cx="60.46" cy="275.6" r="5.12" transform="translate(-177.17 123.47) rotate(-45)"/><circle class="cls-10" cx="60.46" cy="275.6" r="5.12" transform="translate(-177.17 123.47) rotate(-45)"/><circle class="cls-9" cx="93.3" cy="301.24" r="5.12"/><circle class="cls-10" cx="93.3" cy="301.24" r="5.12"/><circle class="cls-11" cx="103.53" cy="194.51" r="5.12" transform="translate(-107.22 130.18) rotate(-45)"/><circle class="cls-6" cx="103.53" cy="194.51" r="5.12" transform="translate(-107.22 130.18) rotate(-45)"/><circle class="cls-11" cx="159.61" cy="250.34" r="5.12" transform="translate(-38.04 28.8) rotate(-9.22)"/><circle class="cls-6" cx="159.61" cy="250.34" r="5.12" transform="translate(-38.04 28.8) rotate(-9.22)"/><circle class="cls-11" cx="108.71" cy="275.6" r="5.12" transform="translate(-163.04 157.59) rotate(-45)"/><circle class="cls-6" cx="108.71" cy="275.6" r="5.12" transform="translate(-163.04 157.59) rotate(-45)"/><circle class="cls-11" cx="78.27" cy="250.34" r="5.12" transform="translate(-183.36 269) rotate(-76.72)"/><circle class="cls-6" cx="78.27" cy="250.34" r="5.12" transform="translate(-183.36 269) rotate(-76.72)"/><circle class="cls-11" cx="34.94" cy="234.93" r="5.12" transform="translate(-155.89 93.52) rotate(-45)"/><circle class="cls-6" cx="34.94" cy="234.93" r="5.12" transform="translate(-155.89 93.52) rotate(-45)"/><circle class="cls-7" cx="163.9" cy="204.74" r="5.12" transform="translate(-65.88 78.31) rotate(-22.5)"/><circle class="cls-8" cx="163.9" cy="204.74" r="5.12" transform="translate(-65.88 78.31) rotate(-22.5)"/><circle class="cls-7" cx="185.5" cy="275.6" r="5.12" transform="translate(-116.26 414.56) rotate(-80.78)"/><circle class="cls-8" cx="185.5" cy="275.6" r="5.12" transform="translate(-116.26 414.56) rotate(-80.78)"/><circle class="cls-7" cx="55.4" cy="199.69" r="5.12" transform="translate(-151.68 207.73) rotate(-76.72)"/><circle class="cls-8" cx="55.4" cy="199.69" r="5.12" transform="translate(-151.68 207.73) rotate(-76.72)"/><rect class="cls-1" x="-407.83" y="-16.36" width="1010.47" height="568.39"/></g><g class="cls-15"><g class="cls-16"><rect class="cls-4" x="-203.5" y="-7.29" width="1013.51" height="570.1"/></g><rect class="cls-5" x="214.38" y="181.54" width="177.87" height="133.66"/><line class="cls-17" x1="306.99" y1="245.64" x2="296.73" y2="194.84"/><path class="cls-14" d="M283.28,198.81l13.45-4L291.83,208Zm-16.1,20.72,20.48-19.09,2.85,3.06L270,222.6Z"/><path class="cls-14" d="M341.09,243.19l11.76,7.65-13.16,4.82Zm-33.87.37,35.49,4-.48,4.14-35.47-4Z"/><path class="cls-14" d="M342.91,260.73l9.94-9.89,2,13.88Zm-2.3,20,6.93-20.62,4,1.33L344.58,282Z"/><path class="cls-14" d="M313.44,284l-11.64-7.8L315,271.54Zm28.89-.54-30.43-3.88.53-4.13,30.42,3.87Z"/><path class="cls-14" d="M290,283.73l11.82-7.55-1,14Zm-5.31,17.1,10-16.75,3.59,2.15-10,16.73Z"/><path class="cls-14" d="M276.4,237.79l-5.13,13.05-7.36-11.93Zm-5.72-16.91,1.74,19.36-4.16.38-1.74-19.36Z"/><path class="cls-14" d="M284.58,255.24l-13.31-4.4,11.5-8Zm22.71-7.53-25.38,3.69-.6-4.13,25.38-3.7Z"/><path class="cls-14" d="M276.91,263.68l-5.64-12.84L284.93,254Zm19.24-.34,5.65,12.84L288.14,273Zm-3.73,7.77-14.45-12,2.67-3.22,14.45,12Z"/><path class="cls-14" d="M258.93,257.52l12.34-6.68-2.06,13.87ZM251.82,275l11.74-16.77,3.42,2.4-11.74,16.78Z"/><path class="cls-14" d="M360.27,238.94l-7.42,11.9-5.06-13.07Zm-8.52,1.3,3.33-35.34,4.16.4-3.33,35.33Z"/><path class="cls-14" d="M357.46,264.09l-4.61-13.25,13.36,4.26Zm4.33-7.45,18.49,18-2.91,3-18.5-18Z"/><path class="cls-14" d="M283.59,189.94l13.14,4.9-11.8,7.57Zm3,8.1-38,4.08-.45-4.16,38-4.08Z"/><path class="cls-14" d="M239.53,227.69l-11.72,7.69.88-14Zm-8.28-2.4L246.53,199l3.61,2.09-15.28,26.31Z"/><circle class="cls-7" cx="268.6" cy="221.07" r="5.13" transform="translate(-8.26 431.69) rotate(-76.72)"/><circle class="cls-8" cx="268.6" cy="221.07" r="5.13" transform="translate(-8.26 431.69) rotate(-76.72)"/><circle class="cls-9" cx="323.97" cy="210.8" r="5.13" transform="translate(44.37 477.67) rotate(-76.72)"/><circle class="cls-10" cx="323.97" cy="210.8" r="5.13" transform="translate(44.37 477.67) rotate(-76.72)"/><circle class="cls-9" cx="306.86" cy="245.64" r="5.13" transform="translate(-83.82 288.93) rotate(-45)"/><circle class="cls-10" cx="306.86" cy="245.64" r="5.13" transform="translate(-83.82 288.93) rotate(-45)"/><circle class="cls-9" cx="342.59" cy="281.24" r="5.13" transform="translate(-81.55 152.51) rotate(-22.5)"/><circle class="cls-10" cx="342.59" cy="281.24" r="5.13" transform="translate(-81.55 152.51) rotate(-22.5)"/><circle class="cls-9" cx="253.4" cy="276.18" r="5.13"/><circle class="cls-10" cx="253.4" cy="276.18" r="5.13"/><circle class="cls-9" cx="286.34" cy="301.77" r="5.13"/><circle class="cls-10" cx="286.34" cy="301.77" r="5.13"/><circle class="cls-11" cx="296.6" cy="194.84" r="5.13" transform="translate(-50.9 266.8) rotate(-45)"/><circle class="cls-6" cx="296.6" cy="194.84" r="5.13" transform="translate(-50.9 266.8) rotate(-45)"/><circle class="cls-11" cx="352.85" cy="250.71" r="5.13" transform="translate(-35.6 59.76) rotate(-9.22)"/><circle class="cls-6" cx="352.85" cy="250.71" r="5.13" transform="translate(-35.6 59.76) rotate(-9.22)"/><circle class="cls-11" cx="301.8" cy="276.18" r="5.13"/><circle class="cls-6" cx="301.8" cy="276.18" r="5.13"/><circle class="cls-11" cx="271.27" cy="250.71" r="5.13" transform="translate(-35.06 457.12) rotate(-76.72)"/><circle class="cls-6" cx="271.27" cy="250.71" r="5.13" transform="translate(-35.06 457.12) rotate(-76.72)"/><circle class="cls-11" cx="227.81" cy="235.38" r="5.13" transform="translate(-99.72 230.03) rotate(-45)"/><circle class="cls-6" cx="227.81" cy="235.38" r="5.13" transform="translate(-99.72 230.03) rotate(-45)"/><circle class="cls-7" cx="357.16" cy="205.1" r="5.13" transform="translate(-51.3 152.29) rotate(-22.5)"/><circle class="cls-8" cx="357.16" cy="205.1" r="5.13" transform="translate(-51.3 152.29) rotate(-22.5)"/><circle class="cls-7" cx="378.7" cy="276.18" r="5.13"/><circle class="cls-8" cx="378.7" cy="276.18" r="5.13"/><circle class="cls-7" cx="248.33" cy="199.91" r="5.13" transform="translate(-3.28 395.67) rotate(-76.72)"/><circle class="cls-8" cx="248.33" cy="199.91" r="5.13" transform="translate(-3.28 395.67) rotate(-76.72)"/><rect class="cls-1" x="-203.5" y="-7.29" width="1013.51" height="570.1"/></g><g class="cls-18"><g class="cls-19"><rect class="cls-4" x="-13.68" y="37.1" width="1012.68" height="569.63"/></g><path class="cls-14" d="M465.22,233,458,221,472,222.44Zm2.75-8.16,29.56,18.92-2.26,3.52-29.56-18.92Z"/><path class="cls-14" d="M471.48,217,458,221l4.9-13.13Zm-7.22-4.69,20.46-19.08,2.85,3.06-20.46,19.08Z"/><path class="cls-14" d="M452.92,234,458,221l7.36,11.92Zm8.13-2.82,1.73,19.34-4.16.38-1.73-19.34Z"/><path class="cls-14" d="M533.12,201l13.41,4-11.29,8.31ZM513,208.65l22.88-3.93.71,4.12-22.87,3.93Z"/><path class="cls-14" d="M539.11,216.9,546.53,205l5.06,13.06Zm1,33.61,3.32-35.29,4.15.39-3.32,35.3Z"/><path class="cls-14" d="M554.89,271.56,568.17,276,556.63,284ZM531.69,279l25.85-3.61.58,4.13-25.86,3.62Z"/><path class="cls-14" d="M563.57,262.79l4.6,13.24-13.34-4.26Zm-19.89-13.58,18.48,18-2.92,3-18.47-18Z"/><path class="cls-14" d="M450.92,204.85,437.79,200l11.79-7.56Zm35.45-8-38,4.07-.44-4.15,38-4.08Z"/><path class="cls-14" d="M442,213.33,437.79,200,451,204.62Zm11.88-5.74L458,221l-13.2-4.67Zm-4.57,7.31-5.76-6,3-2.9,5.76,6Z"/><path class="cls-14" d="M426.08,207.64,437.79,200l-.87,14Zm-10.6,26.58,15.26-26.28,3.61,2.1-15.26,26.27Z"/><circle class="cls-7" cx="458.04" cy="220.96" r="5.13" transform="translate(137.75 615.99) rotate(-76.72)"/><circle class="cls-8" cx="458.04" cy="220.96" r="5.13" transform="translate(137.75 615.99) rotate(-76.72)"/><circle class="cls-9" cx="513.36" cy="210.71" r="5.13" transform="matrix(0.23, -0.97, 0.97, 0.23, 190.34, 661.93)"/><circle class="cls-10" cx="513.36" cy="210.71" r="5.13" transform="matrix(0.23, -0.97, 0.97, 0.23, 190.34, 661.93)"/><circle class="cls-9" cx="496.27" cy="245.52" r="5.13" transform="translate(-28.26 422.83) rotate(-45)"/><circle class="cls-10" cx="496.27" cy="245.52" r="5.13" transform="translate(-28.26 422.83) rotate(-45)"/><circle class="cls-9" cx="531.97" cy="281.09" r="5.13" transform="matrix(0.92, -0.38, 0.38, 0.92, -67.08, 224.97)"/><circle class="cls-10" cx="531.97" cy="281.09" r="5.13" transform="matrix(0.92, -0.38, 0.38, 0.92, -67.08, 224.97)"/><circle class="cls-9" cx="442.85" cy="275.9" r="5.13" transform="translate(-65.38 393.96) rotate(-45)"/><circle class="cls-10" cx="442.85" cy="275.9" r="5.13" transform="translate(-65.38 393.96) rotate(-45)"/><circle class="cls-9" cx="475.77" cy="301.6" r="5.13" transform="translate(-73.91 424.75) rotate(-45)"/><circle class="cls-10" cx="475.77" cy="301.6" r="5.13" transform="translate(-73.91 424.75) rotate(-45)"/><circle class="cls-11" cx="486.02" cy="194.76" r="5.13" transform="translate(4.63 400.71) rotate(-45)"/><circle class="cls-6" cx="486.02" cy="194.76" r="5.13" transform="translate(4.63 400.71) rotate(-45)"/><circle class="cls-11" cx="542.22" cy="250.59" r="5.13" transform="translate(-33.14 90.09) rotate(-9.22)"/><circle class="cls-6" cx="542.22" cy="250.59" r="5.13" transform="translate(-33.14 90.09) rotate(-9.22)"/><circle class="cls-11" cx="491.21" cy="275.9" r="5.13" transform="translate(-51.22 428.15) rotate(-45)"/><circle class="cls-6" cx="491.21" cy="275.9" r="5.13" transform="translate(-51.22 428.15) rotate(-45)"/><circle class="cls-11" cx="460.7" cy="250.59" r="5.13" transform="translate(110.97 641.39) rotate(-76.72)"/><circle class="cls-6" cx="460.7" cy="250.59" r="5.13" transform="translate(110.97 641.39) rotate(-76.72)"/><circle class="cls-11" cx="417.28" cy="235.27" r="5.13" transform="translate(-44.14 363.97) rotate(-45)"/><circle class="cls-6" cx="417.28" cy="235.27" r="5.13" transform="translate(-44.14 363.97) rotate(-45)"/><circle class="cls-7" cx="546.53" cy="205.01" r="5.13" transform="translate(-36.85 224.75) rotate(-22.5)"/><circle class="cls-8" cx="546.53" cy="205.01" r="5.13" transform="translate(-36.85 224.75) rotate(-22.5)"/><circle class="cls-7" cx="568.05" cy="275.9" r="5.13" transform="translate(95.76 695.13) rotate(-67.5)"/><circle class="cls-8" cx="568.05" cy="275.9" r="5.13" transform="translate(95.76 695.13) rotate(-67.5)"/><circle class="cls-7" cx="437.79" cy="199.82" r="5.13" transform="translate(142.73 579.99) rotate(-76.72)"/><circle class="cls-8" cx="437.79" cy="199.82" r="5.13" transform="translate(142.73 579.99) rotate(-76.72)"/><rect class="cls-5" x="403.87" y="181.47" width="177.73" height="133.55"/><rect class="cls-1" x="-13.68" y="37.1" width="1012.68" height="569.63"/></g><g class="cls-20"><g class="cls-21"><rect class="cls-4" x="-208.28" y="-117.55" width="1018.34" height="572.82"/></g><path class="cls-14" d="M310.52,58.09l11.18-8.57.15,14.09ZM315.82,76l-11.18,8.57-.15-14.09Zm-8.46-1.79L315.21,58,319,59.89,311.13,76Z"/><path class="cls-14" d="M336,107.05l4.43,13.38L327.06,116Zm-26.9-9.14-4.44-13.38L318,89Zm4.46-7.42,20.94,21-3,3-20.94-21Z"/><path class="cls-14" d="M326.41,118.83l14,1.6-9.67,10.24ZM298,142.64l-14-1.59,9.67-10.25Zm-4.86-7.17,36.66-13.41,1.45,4-36.66,13.4Z"/><circle class="cls-7" cx="266.07" cy="59.83" r="5.16" transform="translate(35.62 205.67) rotate(-45)"/><circle class="cls-8" cx="266.07" cy="59.83" r="5.16" transform="translate(35.62 205.67) rotate(-45)"/><circle class="cls-9" cx="321.7" cy="49.52" r="5.16"/><circle class="cls-10" cx="321.7" cy="49.52" r="5.16"/><circle class="cls-9" cx="304.51" cy="84.53" r="5.16"/><circle class="cls-10" cx="304.51" cy="84.53" r="5.16"/><circle class="cls-9" cx="340.41" cy="120.3" r="5.16" transform="translate(167.14 437.04) rotate(-80.78)"/><circle class="cls-10" cx="340.41" cy="120.3" r="5.16" transform="translate(167.14 437.04) rotate(-80.78)"/><circle class="cls-9" cx="250.8" cy="115.21" r="5.16" transform="translate(-8.01 211.08) rotate(-45)"/><circle class="cls-10" cx="250.8" cy="115.21" r="5.16" transform="translate(-8.01 211.08) rotate(-45)"/><circle class="cls-9" cx="283.89" cy="140.92" r="5.16" transform="translate(81.52 384.84) rotate(-76.72)"/><circle class="cls-10" cx="283.89" cy="140.92" r="5.16" transform="translate(81.52 384.84) rotate(-76.72)"/><circle class="cls-11" cx="294.2" cy="33.48" r="5.16" transform="translate(194.02 312.12) rotate(-76.72)"/><circle class="cls-6" cx="294.2" cy="33.48" r="5.16" transform="translate(194.02 312.12) rotate(-76.72)"/><circle class="cls-11" cx="350.72" cy="89.62" r="5.16" transform="translate(226.98 429.8) rotate(-84.34)"/><circle class="cls-6" cx="350.72" cy="89.62" r="5.16" transform="translate(226.98 429.8) rotate(-84.34)"/><circle class="cls-11" cx="299.42" cy="115.21" r="5.16" transform="translate(6.24 245.47) rotate(-45)"/><circle class="cls-6" cx="299.42" cy="115.21" r="5.16" transform="translate(6.24 245.47) rotate(-45)"/><circle class="cls-11" cx="268.75" cy="89.62" r="5.16" transform="translate(15.34 216.28) rotate(-45)"/><circle class="cls-6" cx="268.75" cy="89.62" r="5.16" transform="translate(15.34 216.28) rotate(-45)"/><circle class="cls-11" cx="225.08" cy="74.22" r="5.16" transform="translate(13.45 180.9) rotate(-45)"/><circle class="cls-6" cx="225.08" cy="74.22" r="5.16" transform="translate(13.45 180.9) rotate(-45)"/><circle class="cls-7" cx="355.05" cy="43.8" r="5.16" transform="translate(254.95 387.24) rotate(-80.78)"/><circle class="cls-8" cx="355.05" cy="43.8" r="5.16" transform="translate(254.95 387.24) rotate(-80.78)"/><circle class="cls-7" cx="376.69" cy="115.21" r="5.16" transform="translate(126.1 419.13) rotate(-67.5)"/><circle class="cls-8" cx="376.69" cy="115.21" r="5.16" transform="translate(126.1 419.13) rotate(-67.5)"/><circle class="cls-7" cx="245.71" cy="38.7" r="5.16" transform="translate(44.6 185.08) rotate(-45)"/><circle class="cls-8" cx="245.71" cy="38.7" r="5.16" transform="translate(44.6 185.08) rotate(-45)"/><rect class="cls-5" x="211.59" y="20.25" width="178.72" height="134.17"/><rect class="cls-1" x="-208.28" y="-117.55" width="1018.34" height="572.82"/></g><g class="cls-22"><g class="cls-23"><rect class="cls-4" x="40.93" y="-183.49" width="1018.99" height="573.18"/></g><rect class="cls-5" x="398.15" y="20.75" width="178.71" height="134.25"/><path class="cls-24" d="M483.93,73l7.21,12.12-14-1.51ZM453.8,58.59l29.63,19-2.27,3.54-29.63-19Z"/><path class="cls-14" d="M494.81,71.47l-3.67,13.61L482.45,74ZM487,75.2l-8.23-40.66,4.12-.83,8.23,40.65Z"/><path class="cls-14" d="M503,92.76l-11.82-7.68,13.23-4.85Zm-1.15-8.6,35.8,4-.47,4.18-35.79-4Z"/><path class="cls-14" d="M537.05,111.05l-10,10-2-14Zm-8.64-.69,7-20.73,4,1.34-7,20.74Z"/><path class="cls-14" d="M515.35,113.15,527.06,121l-13.32,4.66Zm1,8.6-30.59-3.9.53-4.16,30.59,3.9Z"/><path class="cls-14" d="M482.4,134.07l-11.9,7.56,1.09-14Zm-8.29-2.53,10.13-16.85,3.61,2.17L477.72,133.7Z"/><path class="cls-14" d="M477.75,80.66l13.39,4.42-11.57,8Zm3.29,8-25.39,3.7L455,88.22l25.4-3.71Z"/><path class="cls-14" d="M449.8,109.1l-12.42,6.67,2.12-13.93ZM441.72,106l11.9-16.89,3.44,2.42L445.15,108.4Z"/><path class="cls-24" d="M521.81,54.18l-13.48-4.13,11.39-8.31Zm-3.46-7.94,23-3.87.7,4.14-23,3.87Z"/><path class="cls-24" d="M540.43,125.44,527.06,121l11.58-8Zm-3.27-8,25.9-3.73.59,4.16-25.9,3.73Z"/><circle class="cls-7" cx="452.54" cy="60.37" r="5.16" transform="translate(289.82 486.93) rotate(-76.72)"/><circle class="cls-8" cx="452.54" cy="60.37" r="5.16" transform="translate(289.82 486.93) rotate(-76.72)"/><circle class="cls-9" cx="508.2" cy="50.05" r="5.16" transform="translate(113.46 374.01) rotate(-45)"/><circle class="cls-10" cx="508.2" cy="50.05" r="5.16" transform="translate(113.46 374.01) rotate(-45)"/><circle class="cls-9" cx="491.14" cy="85.08" r="5.16" transform="translate(83.69 372.2) rotate(-45)"/><circle class="cls-10" cx="491.14" cy="85.08" r="5.16" transform="translate(83.69 372.2) rotate(-45)"/><circle class="cls-9" cx="526.93" cy="120.87" r="5.16"/><circle class="cls-10" cx="526.93" cy="120.87" r="5.16"/><circle class="cls-9" cx="437.38" cy="115.77" r="5.16" transform="translate(290.89 543.85) rotate(-85.93)"/><circle class="cls-10" cx="437.38" cy="115.77" r="5.16" transform="translate(290.89 543.85) rotate(-85.93)"/><circle class="cls-9" cx="470.5" cy="141.5" r="5.16"/><circle class="cls-10" cx="470.5" cy="141.5" r="5.16"/><circle class="cls-11" cx="480.82" cy="34" r="5.16" transform="translate(116.79 349.95) rotate(-45)"/><circle class="cls-6" cx="480.82" cy="34" r="5.16" transform="translate(116.79 349.95) rotate(-45)"/><circle class="cls-11" cx="537.25" cy="90.17" r="5.16" transform="translate(93.59 406.3) rotate(-45)"/><circle class="cls-6" cx="537.25" cy="90.17" r="5.16" transform="translate(93.59 406.3) rotate(-45)"/><circle class="cls-11" cx="485.91" cy="115.77" r="5.16" transform="translate(322.82 587.91) rotate(-84.35)"/><circle class="cls-6" cx="485.91" cy="115.77" r="5.16" transform="translate(322.82 587.91) rotate(-84.35)"/><circle class="cls-11" cx="455.22" cy="90.17" r="5.16" transform="translate(69.57 348.3) rotate(-45)"/><circle class="cls-6" cx="455.22" cy="90.17" r="5.16" transform="translate(69.57 348.3) rotate(-45)"/><circle class="cls-11" cx="411.53" cy="74.76" r="5.16" transform="translate(67.67 312.89) rotate(-45)"/><circle class="cls-6" cx="411.53" cy="74.76" r="5.16" transform="translate(67.67 312.89) rotate(-45)"/><circle class="cls-7" cx="541.58" cy="44.32" r="5.16" transform="translate(127.29 395.93) rotate(-45)"/><circle class="cls-8" cx="541.58" cy="44.32" r="5.16" transform="translate(127.29 395.93) rotate(-45)"/><circle class="cls-7" cx="563.36" cy="115.77" r="5.16"/><circle class="cls-8" cx="563.36" cy="115.77" r="5.16"/><circle class="cls-7" cx="432.16" cy="39.22" r="5.16" transform="translate(98.84 317.07) rotate(-45)"/><circle class="cls-8" cx="432.16" cy="39.22" r="5.16" transform="translate(98.84 317.07) rotate(-45)"/><rect class="cls-1" x="40.93" y="-183.49" width="1018.99" height="573.18"/></g><text class="cls-25" transform="translate(0.51 16.4)">(a)</text><text class="cls-25" transform="translate(202.87 16.4)">(b)</text><text class="cls-25" transform="translate(0.71 176.57)">(c)</text><text class="cls-26" transform="translate(578.97 90.85)">...</text><text class="cls-27" transform="translate(116.51 40.06)">A</text><text class="cls-25" transform="translate(162.17 85.87)">B</text><text class="cls-25" transform="translate(48.51 72.2)">C</text><text class="cls-25" transform="translate(227.2 15.96)">A<tspan class="cls-28" x="13" y="0">→</tspan><tspan x="31" y="0">A</tspan><tspan class="cls-28" x="44" y="0">←</tspan><tspan x="62" y="0">A:</tspan></text><text class="cls-25" transform="translate(398.2 15.96)">B<tspan class="cls-28" x="12.01" y="0">→</tspan><tspan x="30.01" y="0">A</tspan><tspan class="cls-28" x="43" y="0">←</tspan><tspan x="61" y="0">C:</tspan></text><text class="cls-25" transform="translate(27.04 176.73)">A:</text><text class="cls-25" transform="translate(214.38 176.73)">B:</text><text class="cls-25" transform="translate(400.19 176.73)">C:</text></svg>